<?xml version="1.0" encoding="utf-8"?>
<!-- Generator: Adobe Illustrator 14.0.0, SVG Export Plug-In . SVG Version: 6.00 Build 43363)  -->
<!DOCTYPE svg PUBLIC "-//W3C//DTD SVG 1.1//EN" "http://www.w3.org/Graphics/SVG/1.1/DTD/svg11.dtd">
<svg version="1.1" id="Layer_1" xmlns="http://www.w3.org/2000/svg" xmlns:xlink="http://www.w3.org/1999/xlink" x="0px" y="0px"
	 width="170px" height="181px" viewBox="0 0 170 181" enable-background="new 0 0 170 181" xml:space="preserve">
<path fill="#4C4C4D" d="M85.367,177.435c10.208,0,18.473-5.614,18.473-5.614s48.586-29.834,56.242-37.49s7.146-18.884,7.146-18.884
	V64.87c0,0,0.51-11.229-7.146-18.884S103.84,8.496,103.84,8.496s-8.265-5.614-18.473-5.614S66.894,8.496,66.894,8.496
	S18.308,38.33,10.652,45.986S3.506,64.87,3.506,64.87v50.577c0,0-0.51,11.229,7.146,18.884s56.242,37.49,56.242,37.49
	S75.159,177.435,85.367,177.435z"/>
<path fill="#FFFFFF" d="M85.368,145.159c13.32,0,29.115-11.949,39.511-21.437c11.847-10.812,12.075-18.99,12.075-33.563
	s1.14-24.474-12.075-33.563c-10.188-7.007-36.73-28.386-39.512-28.386c-2.885,0-29.322,21.378-39.51,28.386
	c-13.216,9.09-12.077,18.99-12.077,33.563s0.735,22.222,12.077,33.563C55.414,133.279,72.047,145.159,85.368,145.159"/>
<path fill="#B0AFB0" d="M85.368,125.545c8.832,0,17.78-5.336,26.163-14.307c6.711-7.181,7.026-12.217,7.026-21.079
	c0-8.863,1.035-15.458-7.026-21.081C104.86,64.425,94.2,54.772,85.368,54.772c-8.833,0-19.491,9.653-26.164,14.307
	c-8.063,5.624-7.027,12.217-7.027,21.081c0,8.863,0.168,14.038,7.027,21.079C69.891,122.209,76.535,125.545,85.368,125.545"/>
<path d="M85.368,106.612c20.635,0,20.634-32.906,0-32.906C64.732,73.706,64.732,106.612,85.368,106.612"/>
</svg>
