<?xml version="1.0" encoding="utf-8"?>
<!-- Generator: Adobe Illustrator 14.0.0, SVG Export Plug-In . SVG Version: 6.00 Build 43363)  -->
<!DOCTYPE svg PUBLIC "-//W3C//DTD SVG 1.1//EN" "http://www.w3.org/Graphics/SVG/1.1/DTD/svg11.dtd">
<svg version="1.1" id="Layer_1" xmlns="http://www.w3.org/2000/svg" xmlns:xlink="http://www.w3.org/1999/xlink" x="0px" y="0px"
	 width="168.81px" height="179.559px" viewBox="0 0 168.81 179.559" enable-background="new 0 0 168.81 179.559"
	 xml:space="preserve">
<path fill="#303895" d="M84.405,177.056c10.208,0,18.473-5.614,18.473-5.614s48.586-29.834,56.242-37.49s7.146-18.884,7.146-18.884
	V64.491c0,0,0.51-11.229-7.146-18.884s-56.242-37.49-56.242-37.49s-8.265-5.614-18.473-5.614S65.932,8.117,65.932,8.117
	S17.346,37.951,9.69,45.607S2.544,64.491,2.544,64.491v50.577c0,0-0.51,11.229,7.146,18.884s56.242,37.49,56.242,37.49
	S74.197,177.056,84.405,177.056z"/>
<path fill="#FFFFFF" d="M84.406,144.78c13.32,0,29.115-11.949,39.511-21.437c11.847-10.812,12.075-18.99,12.075-33.563
	s1.14-24.474-12.075-33.563c-10.188-7.007-36.73-28.386-39.512-28.386c-2.885,0-29.322,21.378-39.51,28.386
	c-13.216,9.09-12.077,18.99-12.077,33.563s0.735,22.222,12.077,33.563C54.452,132.9,71.085,144.78,84.406,144.78"/>
<path fill="#479EB2" d="M84.406,125.167c8.832,0,17.78-5.336,26.163-14.307c6.711-7.181,7.026-12.217,7.026-21.079
	c0-8.863,1.035-15.458-7.026-21.081c-6.671-4.653-17.331-14.307-26.163-14.307c-8.833,0-19.491,9.653-26.164,14.307
	c-8.063,5.624-7.027,12.217-7.027,21.081c0,8.863,0.168,14.038,7.027,21.079C68.929,121.831,75.573,125.167,84.406,125.167"/>
<path d="M84.406,106.233c20.635,0,20.634-32.906,0-32.906C63.77,73.327,63.77,106.233,84.406,106.233"/>
</svg>
